<mxfile host="app.diagrams.net" agent="Mozilla/5.0 (X11; Linux x86_64) AppleWebKit/537.36 (KHTML, like Gecko) Chrome/137.0.0.0 Safari/537.36" version="27.2.0">
  <diagram name="Page-1" id="hvNq0bLNqhKwoZfUZP0T">
    <mxGraphModel dx="2361" dy="2073" grid="1" gridSize="10" guides="1" tooltips="1" connect="1" arrows="1" fold="1" page="1" pageScale="1" pageWidth="850" pageHeight="1100" math="0" shadow="0">
      <root>
        <mxCell id="0" />
        <mxCell id="1" parent="0" />
        <mxCell id="jyh1h8HAa2u7fzU4bVlv-139" value="FISHNET THINGS" style="rounded=1;whiteSpace=wrap;html=1;labelPosition=center;verticalLabelPosition=top;align=center;verticalAlign=bottom;" parent="1" vertex="1">
          <mxGeometry x="95" y="-500" width="320" height="200" as="geometry" />
        </mxCell>
        <mxCell id="jyh1h8HAa2u7fzU4bVlv-132" value="AWS Comm. Cloud" style="rounded=1;whiteSpace=wrap;html=1;labelPosition=center;verticalLabelPosition=top;align=center;verticalAlign=bottom;" parent="1" vertex="1">
          <mxGeometry x="-340" y="-300" width="410" height="200" as="geometry" />
        </mxCell>
        <mxCell id="jyh1h8HAa2u7fzU4bVlv-113" value="&lt;div&gt;&lt;b&gt;Wider Objectives:&lt;/b&gt;&lt;/div&gt;&lt;div&gt;Get Data Across Echelons&amp;nbsp;&lt;/div&gt;&lt;div&gt;and Across Peers&lt;/div&gt;&lt;ul&gt;&lt;li&gt;GLOBAL&lt;/li&gt;&lt;li&gt;JOINT&lt;/li&gt;&lt;li&gt;COMBINED&lt;/li&gt;&lt;/ul&gt;&lt;div&gt;&lt;i&gt;(With care to prioritize&amp;nbsp;&lt;/i&gt;&lt;/div&gt;&lt;div&gt;&lt;i&gt;getting the data where&amp;nbsp;&lt;/i&gt;&lt;/div&gt;&lt;div&gt;&lt;i&gt;it is most valued.)&lt;/i&gt;&lt;/div&gt;&lt;div&gt;&lt;i&gt;&lt;br&gt;&lt;/i&gt;&lt;/div&gt;&lt;div&gt;&lt;i&gt;Initiate the establishment of&lt;/i&gt;&lt;/div&gt;&lt;div&gt;&lt;i&gt;the data backbone of the&lt;/i&gt;&lt;/div&gt;&lt;div&gt;&lt;i&gt;Eastern Flank Defense Line.&lt;/i&gt;&lt;/div&gt;&lt;div&gt;&lt;i&gt;&lt;br&gt;&lt;/i&gt;&lt;/div&gt;&lt;div&gt;&lt;i&gt;Wherever possible, utilize live data&lt;/i&gt;&lt;/div&gt;&lt;div&gt;&lt;i&gt;to generate timely insights and&lt;/i&gt;&lt;/div&gt;&lt;div&gt;&lt;i&gt;push it out to the point of need.&lt;/i&gt;&lt;/div&gt;" style="text;html=1;align=left;verticalAlign=middle;resizable=0;points=[];autosize=1;strokeColor=none;fillColor=none;fontFamily=Helvetica;fontSize=11;fontColor=default;labelBackgroundColor=default;" parent="1" vertex="1">
          <mxGeometry x="-520" y="-580" width="190" height="260" as="geometry" />
        </mxCell>
        <mxCell id="jyh1h8HAa2u7fzU4bVlv-119" value="&lt;b&gt;EX FLYTRAP CORE NETWORK&lt;/b&gt;" style="ellipse;whiteSpace=wrap;html=1;fontFamily=Helvetica;fontSize=11;labelBackgroundColor=default;fillColor=#dae8fc;strokeColor=#6c8ebf;labelPosition=center;verticalLabelPosition=top;align=center;verticalAlign=bottom;" parent="1" vertex="1">
          <mxGeometry x="-100" y="-120" width="830" height="560" as="geometry" />
        </mxCell>
        <mxCell id="jyh1h8HAa2u7fzU4bVlv-78" value="1/RY" style="rounded=1;whiteSpace=wrap;html=1;fontFamily=Helvetica;fontSize=11;fontColor=default;labelBackgroundColor=default;dashed=1;labelPosition=center;verticalLabelPosition=bottom;align=center;verticalAlign=top;" parent="1" vertex="1">
          <mxGeometry x="530" y="100" width="140" height="170" as="geometry" />
        </mxCell>
        <mxCell id="jyh1h8HAa2u7fzU4bVlv-77" value="Multiple Vendors" style="rounded=1;whiteSpace=wrap;html=1;fontFamily=Helvetica;fontSize=11;fontColor=default;labelBackgroundColor=default;dashed=1;labelPosition=center;verticalLabelPosition=bottom;align=center;verticalAlign=top;" parent="1" vertex="1">
          <mxGeometry x="280" y="160" width="90" height="135" as="geometry" />
        </mxCell>
        <mxCell id="jyh1h8HAa2u7fzU4bVlv-75" value="3/2CR" style="rounded=1;whiteSpace=wrap;html=1;fontFamily=Helvetica;fontSize=11;fontColor=default;labelBackgroundColor=default;dashed=1;labelPosition=center;verticalLabelPosition=bottom;align=center;verticalAlign=top;" parent="1" vertex="1">
          <mxGeometry x="340" y="97.5" width="145" height="80" as="geometry" />
        </mxCell>
        <mxCell id="jyh1h8HAa2u7fzU4bVlv-129" style="edgeStyle=none;shape=connector;rounded=0;orthogonalLoop=1;jettySize=auto;html=1;entryX=0.5;entryY=1;entryDx=0;entryDy=0;strokeColor=default;align=center;verticalAlign=middle;fontFamily=Helvetica;fontSize=11;fontColor=default;labelBackgroundColor=default;startFill=0;endArrow=none;" parent="1" source="jyh1h8HAa2u7fzU4bVlv-28" target="jyh1h8HAa2u7fzU4bVlv-120" edge="1">
          <mxGeometry relative="1" as="geometry" />
        </mxCell>
        <mxCell id="jyh1h8HAa2u7fzU4bVlv-28" value="pLEO / 5G&lt;div&gt;Transport&lt;/div&gt;" style="rounded=1;whiteSpace=wrap;html=1;" parent="1" vertex="1">
          <mxGeometry x="190" y="10" width="389" height="40" as="geometry" />
        </mxCell>
        <mxCell id="jyh1h8HAa2u7fzU4bVlv-128" style="edgeStyle=none;shape=connector;rounded=0;orthogonalLoop=1;jettySize=auto;html=1;entryX=0.5;entryY=1;entryDx=0;entryDy=0;strokeColor=default;align=center;verticalAlign=middle;fontFamily=Helvetica;fontSize=11;fontColor=default;labelBackgroundColor=default;startFill=0;endArrow=none;" parent="1" source="jyh1h8HAa2u7fzU4bVlv-45" target="jyh1h8HAa2u7fzU4bVlv-124" edge="1">
          <mxGeometry relative="1" as="geometry" />
        </mxCell>
        <mxCell id="jyh1h8HAa2u7fzU4bVlv-45" value="FUSION" style="rounded=1;whiteSpace=wrap;html=1;" parent="1" vertex="1">
          <mxGeometry x="570" y="200" width="60" height="15" as="geometry" />
        </mxCell>
        <mxCell id="jyh1h8HAa2u7fzU4bVlv-46" style="rounded=0;orthogonalLoop=1;jettySize=auto;html=1;entryX=0.5;entryY=1;entryDx=0;entryDy=0;endArrow=none;startFill=0;" parent="1" source="jyh1h8HAa2u7fzU4bVlv-47" target="jyh1h8HAa2u7fzU4bVlv-45" edge="1">
          <mxGeometry relative="1" as="geometry">
            <mxPoint x="782.5" y="435" as="sourcePoint" />
          </mxGeometry>
        </mxCell>
        <mxCell id="jyh1h8HAa2u7fzU4bVlv-47" value="SENSOR" style="rounded=1;whiteSpace=wrap;html=1;" parent="1" vertex="1">
          <mxGeometry x="570.88" y="230" width="58.25" height="30" as="geometry" />
        </mxCell>
        <mxCell id="jyh1h8HAa2u7fzU4bVlv-121" style="edgeStyle=none;shape=connector;rounded=0;orthogonalLoop=1;jettySize=auto;html=1;entryX=0.75;entryY=1;entryDx=0;entryDy=0;strokeColor=default;align=center;verticalAlign=middle;fontFamily=Helvetica;fontSize=11;fontColor=default;labelBackgroundColor=default;startFill=0;endArrow=none;" parent="1" source="jyh1h8HAa2u7fzU4bVlv-56" target="jyh1h8HAa2u7fzU4bVlv-82" edge="1">
          <mxGeometry relative="1" as="geometry" />
        </mxCell>
        <mxCell id="jyh1h8HAa2u7fzU4bVlv-122" value="Future&lt;div&gt;Data Flow&lt;/div&gt;&lt;div&gt;(FLYTRAP 4.0)&lt;/div&gt;" style="edgeLabel;html=1;align=center;verticalAlign=middle;resizable=0;points=[];fontFamily=Helvetica;fontSize=11;fontColor=default;labelBackgroundColor=default;" parent="jyh1h8HAa2u7fzU4bVlv-121" connectable="0" vertex="1">
          <mxGeometry x="0.395" y="4" relative="1" as="geometry">
            <mxPoint as="offset" />
          </mxGeometry>
        </mxCell>
        <mxCell id="jyh1h8HAa2u7fzU4bVlv-125" style="edgeStyle=none;shape=connector;rounded=0;orthogonalLoop=1;jettySize=auto;html=1;entryX=0;entryY=1;entryDx=0;entryDy=0;strokeColor=default;align=center;verticalAlign=middle;fontFamily=Helvetica;fontSize=11;fontColor=default;labelBackgroundColor=default;startFill=0;endArrow=none;" parent="1" source="jyh1h8HAa2u7fzU4bVlv-56" target="jyh1h8HAa2u7fzU4bVlv-123" edge="1">
          <mxGeometry relative="1" as="geometry" />
        </mxCell>
        <mxCell id="jyh1h8HAa2u7fzU4bVlv-56" value="FOCUS" style="rounded=1;whiteSpace=wrap;html=1;" parent="1" vertex="1">
          <mxGeometry x="299.25" y="182.89999999999998" width="48" height="40" as="geometry" />
        </mxCell>
        <mxCell id="jyh1h8HAa2u7fzU4bVlv-58" value="SENSOR" style="rounded=1;whiteSpace=wrap;html=1;" parent="1" vertex="1">
          <mxGeometry x="297" y="242.89999999999998" width="52.5" height="40" as="geometry" />
        </mxCell>
        <mxCell id="jyh1h8HAa2u7fzU4bVlv-59" value="" style="rounded=0;orthogonalLoop=1;jettySize=auto;html=1;entryX=0.5;entryY=1;entryDx=0;entryDy=0;endArrow=none;startFill=0;" parent="1" source="jyh1h8HAa2u7fzU4bVlv-58" target="jyh1h8HAa2u7fzU4bVlv-56" edge="1">
          <mxGeometry relative="1" as="geometry">
            <mxPoint x="237" y="335" as="sourcePoint" />
            <mxPoint x="252" y="395" as="targetPoint" />
          </mxGeometry>
        </mxCell>
        <mxCell id="jyh1h8HAa2u7fzU4bVlv-136" style="edgeStyle=none;shape=connector;rounded=0;orthogonalLoop=1;jettySize=auto;html=1;entryX=0.5;entryY=1;entryDx=0;entryDy=0;strokeColor=default;align=center;verticalAlign=middle;fontFamily=Helvetica;fontSize=11;fontColor=default;labelBackgroundColor=default;startFill=0;endArrow=none;exitX=0;exitY=0;exitDx=0;exitDy=0;" parent="1" source="jyh1h8HAa2u7fzU4bVlv-82" target="jyh1h8HAa2u7fzU4bVlv-133" edge="1">
          <mxGeometry relative="1" as="geometry" />
        </mxCell>
        <mxCell id="jyh1h8HAa2u7fzU4bVlv-82" value="AWS Comm. Cloud" style="rounded=1;whiteSpace=wrap;html=1;labelPosition=center;verticalLabelPosition=top;align=center;verticalAlign=bottom;" parent="1" vertex="1">
          <mxGeometry x="-10" y="67.5" width="140" height="50" as="geometry" />
        </mxCell>
        <mxCell id="jyh1h8HAa2u7fzU4bVlv-83" value="SkyFortress" style="rounded=1;whiteSpace=wrap;html=1;fontFamily=Helvetica;fontSize=11;fontColor=default;labelBackgroundColor=default;dashed=1;labelPosition=center;verticalLabelPosition=bottom;align=center;verticalAlign=top;" parent="1" vertex="1">
          <mxGeometry y="215.00000000000003" width="90" height="87.5" as="geometry" />
        </mxCell>
        <mxCell id="jyh1h8HAa2u7fzU4bVlv-101" style="edgeStyle=none;shape=connector;rounded=0;orthogonalLoop=1;jettySize=auto;html=1;entryX=0.5;entryY=1;entryDx=0;entryDy=0;strokeColor=default;align=center;verticalAlign=middle;fontFamily=Helvetica;fontSize=11;fontColor=default;labelBackgroundColor=default;startFill=0;endArrow=none;" parent="1" source="jyh1h8HAa2u7fzU4bVlv-84" target="jyh1h8HAa2u7fzU4bVlv-82" edge="1">
          <mxGeometry relative="1" as="geometry" />
        </mxCell>
        <mxCell id="jyh1h8HAa2u7fzU4bVlv-110" value="5G or pLEO&lt;div&gt;Transport&lt;/div&gt;" style="edgeLabel;html=1;align=center;verticalAlign=middle;resizable=0;points=[];fontFamily=Helvetica;fontSize=11;fontColor=default;labelBackgroundColor=default;" parent="jyh1h8HAa2u7fzU4bVlv-101" connectable="0" vertex="1">
          <mxGeometry x="0.2455" y="-3" relative="1" as="geometry">
            <mxPoint y="1" as="offset" />
          </mxGeometry>
        </mxCell>
        <mxCell id="jyh1h8HAa2u7fzU4bVlv-84" value="Acoustic SENSOR" style="rounded=1;whiteSpace=wrap;html=1;" parent="1" vertex="1">
          <mxGeometry x="20" y="242.90000000000003" width="60" height="40" as="geometry" />
        </mxCell>
        <mxCell id="jyh1h8HAa2u7fzU4bVlv-108" style="edgeStyle=none;shape=connector;rounded=0;orthogonalLoop=1;jettySize=auto;html=1;entryX=0.25;entryY=1;entryDx=0;entryDy=0;strokeColor=default;align=center;verticalAlign=middle;fontFamily=Helvetica;fontSize=11;fontColor=default;labelBackgroundColor=default;startFill=0;endArrow=none;" parent="1" source="jyh1h8HAa2u7fzU4bVlv-95" target="jyh1h8HAa2u7fzU4bVlv-28" edge="1">
          <mxGeometry relative="1" as="geometry" />
        </mxCell>
        <mxCell id="jyh1h8HAa2u7fzU4bVlv-95" value="SOLDIER&lt;div&gt;(TOC)&lt;/div&gt;" style="ellipse;whiteSpace=wrap;html=1;aspect=fixed;labelPosition=center;verticalLabelPosition=middle;align=center;verticalAlign=middle;" parent="1" vertex="1">
          <mxGeometry x="210" y="67.5" width="82.5" height="82.5" as="geometry" />
        </mxCell>
        <mxCell id="jyh1h8HAa2u7fzU4bVlv-120" value="IL 4/5 MCIS" style="rounded=1;whiteSpace=wrap;html=1;" parent="1" vertex="1">
          <mxGeometry x="141" y="-70" width="389" height="40" as="geometry" />
        </mxCell>
        <mxCell id="jyh1h8HAa2u7fzU4bVlv-126" style="edgeStyle=none;shape=connector;rounded=0;orthogonalLoop=1;jettySize=auto;html=1;strokeColor=default;align=center;verticalAlign=middle;fontFamily=Helvetica;fontSize=11;fontColor=default;labelBackgroundColor=default;startFill=0;endArrow=none;" parent="1" source="jyh1h8HAa2u7fzU4bVlv-123" target="jyh1h8HAa2u7fzU4bVlv-28" edge="1">
          <mxGeometry relative="1" as="geometry" />
        </mxCell>
        <mxCell id="jyh1h8HAa2u7fzU4bVlv-123" value="Tactical&lt;div&gt;Ecosystem&lt;/div&gt;" style="ellipse;whiteSpace=wrap;html=1;aspect=fixed;labelPosition=center;verticalLabelPosition=middle;align=center;verticalAlign=middle;" parent="1" vertex="1">
          <mxGeometry x="377.5" y="102.5" width="70" height="70" as="geometry" />
        </mxCell>
        <mxCell id="jyh1h8HAa2u7fzU4bVlv-124" value="Tactical&lt;div&gt;Ecosystem&lt;/div&gt;" style="ellipse;whiteSpace=wrap;html=1;aspect=fixed;labelPosition=center;verticalLabelPosition=middle;align=center;verticalAlign=middle;" parent="1" vertex="1">
          <mxGeometry x="565" y="107.5" width="70" height="70" as="geometry" />
        </mxCell>
        <mxCell id="jyh1h8HAa2u7fzU4bVlv-127" style="edgeStyle=none;shape=connector;rounded=0;orthogonalLoop=1;jettySize=auto;html=1;entryX=0.833;entryY=0.975;entryDx=0;entryDy=0;entryPerimeter=0;strokeColor=default;align=center;verticalAlign=middle;fontFamily=Helvetica;fontSize=11;fontColor=default;labelBackgroundColor=default;startFill=0;endArrow=none;" parent="1" source="jyh1h8HAa2u7fzU4bVlv-124" target="jyh1h8HAa2u7fzU4bVlv-28" edge="1">
          <mxGeometry relative="1" as="geometry" />
        </mxCell>
        <mxCell id="jyh1h8HAa2u7fzU4bVlv-130" value="&lt;b&gt;Global, Commercial&lt;/b&gt;" style="text;html=1;align=center;verticalAlign=middle;resizable=0;points=[];autosize=1;strokeColor=none;fillColor=none;fontFamily=Helvetica;fontSize=11;fontColor=default;labelBackgroundColor=default;" parent="1" vertex="1">
          <mxGeometry x="-227.5" y="-390" width="130" height="30" as="geometry" />
        </mxCell>
        <mxCell id="jyh1h8HAa2u7fzU4bVlv-131" value="SkyFortress&lt;div&gt;Server&lt;/div&gt;" style="rounded=1;whiteSpace=wrap;html=1;" parent="1" vertex="1">
          <mxGeometry x="12.5" y="76.25" width="95" height="32.5" as="geometry" />
        </mxCell>
        <mxCell id="jyh1h8HAa2u7fzU4bVlv-137" style="edgeStyle=none;shape=connector;rounded=0;orthogonalLoop=1;jettySize=auto;html=1;entryX=0.5;entryY=1;entryDx=0;entryDy=0;strokeColor=default;align=center;verticalAlign=middle;fontFamily=Helvetica;fontSize=11;fontColor=default;labelBackgroundColor=default;startFill=0;endArrow=none;" parent="1" source="jyh1h8HAa2u7fzU4bVlv-133" target="jyh1h8HAa2u7fzU4bVlv-134" edge="1">
          <mxGeometry relative="1" as="geometry" />
        </mxCell>
        <mxCell id="jyh1h8HAa2u7fzU4bVlv-138" style="edgeStyle=none;shape=connector;rounded=0;orthogonalLoop=1;jettySize=auto;html=1;entryX=0.5;entryY=1;entryDx=0;entryDy=0;strokeColor=default;align=center;verticalAlign=middle;fontFamily=Helvetica;fontSize=11;fontColor=default;labelBackgroundColor=default;startFill=0;endArrow=none;" parent="1" source="jyh1h8HAa2u7fzU4bVlv-133" target="jyh1h8HAa2u7fzU4bVlv-135" edge="1">
          <mxGeometry relative="1" as="geometry" />
        </mxCell>
        <mxCell id="RWwmXoy-t98wEFd1XdQo-32" style="edgeStyle=orthogonalEdgeStyle;rounded=0;orthogonalLoop=1;jettySize=auto;html=1;entryX=0.5;entryY=0;entryDx=0;entryDy=0;endArrow=none;startFill=0;" parent="1" source="jyh1h8HAa2u7fzU4bVlv-133" target="RWwmXoy-t98wEFd1XdQo-2" edge="1">
          <mxGeometry relative="1" as="geometry" />
        </mxCell>
        <mxCell id="jyh1h8HAa2u7fzU4bVlv-133" value="Core4ce&lt;div&gt;Data Enrichment&lt;/div&gt;" style="rounded=1;whiteSpace=wrap;html=1;" parent="1" vertex="1">
          <mxGeometry x="-110" y="-199.25" width="95" height="32.5" as="geometry" />
        </mxCell>
        <mxCell id="jyh1h8HAa2u7fzU4bVlv-134" value="Grist Mill Exchange CAI&amp;nbsp;&lt;span style=&quot;background-color: transparent; color: light-dark(rgb(0, 0, 0), rgb(255, 255, 255));&quot;&gt;Sources&lt;/span&gt;" style="rounded=1;whiteSpace=wrap;html=1;" parent="1" vertex="1">
          <mxGeometry x="-210" y="-280" width="110" height="50" as="geometry" />
        </mxCell>
        <mxCell id="jyh1h8HAa2u7fzU4bVlv-141" style="edgeStyle=none;shape=connector;rounded=0;orthogonalLoop=1;jettySize=auto;html=1;entryX=0;entryY=1;entryDx=0;entryDy=0;strokeColor=default;align=center;verticalAlign=middle;fontFamily=Helvetica;fontSize=11;fontColor=default;labelBackgroundColor=default;startFill=0;endArrow=none;" parent="1" source="jyh1h8HAa2u7fzU4bVlv-135" target="jyh1h8HAa2u7fzU4bVlv-140" edge="1">
          <mxGeometry relative="1" as="geometry" />
        </mxCell>
        <mxCell id="jyh1h8HAa2u7fzU4bVlv-135" value="Core4ce&lt;div&gt;Publishing&lt;/div&gt;" style="rounded=1;whiteSpace=wrap;html=1;" parent="1" vertex="1">
          <mxGeometry x="-37.5" y="-262.5" width="95" height="32.5" as="geometry" />
        </mxCell>
        <mxCell id="RWwmXoy-t98wEFd1XdQo-15" style="rounded=0;orthogonalLoop=1;jettySize=auto;html=1;" parent="1" source="jyh1h8HAa2u7fzU4bVlv-140" target="RWwmXoy-t98wEFd1XdQo-14" edge="1">
          <mxGeometry relative="1" as="geometry" />
        </mxCell>
        <mxCell id="jyh1h8HAa2u7fzU4bVlv-140" value="CIS-EN&lt;div&gt;Node&lt;/div&gt;" style="rounded=1;whiteSpace=wrap;html=1;" parent="1" vertex="1">
          <mxGeometry x="117.5" y="-470" width="95" height="32.5" as="geometry" />
        </mxCell>
        <mxCell id="jyh1h8HAa2u7fzU4bVlv-142" value="MCHMMR" style="rounded=1;whiteSpace=wrap;html=1;labelPosition=center;verticalLabelPosition=top;align=center;verticalAlign=bottom;" parent="1" vertex="1">
          <mxGeometry x="455" y="-350" width="145" height="140" as="geometry" />
        </mxCell>
        <mxCell id="jyh1h8HAa2u7fzU4bVlv-143" value="CIS-EN&lt;div&gt;Node&lt;/div&gt;" style="rounded=1;whiteSpace=wrap;html=1;" parent="1" vertex="1">
          <mxGeometry x="480" y="-270" width="95" height="32.5" as="geometry" />
        </mxCell>
        <mxCell id="jyh1h8HAa2u7fzU4bVlv-145" value="&lt;b&gt;Global, Commercial, Tactical, PQC&lt;/b&gt;" style="text;html=1;align=center;verticalAlign=middle;resizable=0;points=[];autosize=1;strokeColor=none;fillColor=none;fontFamily=Helvetica;fontSize=11;fontColor=default;labelBackgroundColor=default;" parent="1" vertex="1">
          <mxGeometry x="117.5" y="-650" width="200" height="30" as="geometry" />
        </mxCell>
        <mxCell id="RWwmXoy-t98wEFd1XdQo-2" value="Millton AI Chatbot Server" style="rounded=1;whiteSpace=wrap;html=1;" parent="1" vertex="1">
          <mxGeometry x="-300" y="-160" width="92" height="40" as="geometry" />
        </mxCell>
        <mxCell id="RWwmXoy-t98wEFd1XdQo-17" style="rounded=0;orthogonalLoop=1;jettySize=auto;html=1;entryX=0.5;entryY=1;entryDx=0;entryDy=0;endArrow=none;startFill=0;exitX=0.5;exitY=0;exitDx=0;exitDy=0;exitPerimeter=0;" parent="1" source="RWwmXoy-t98wEFd1XdQo-6" target="RWwmXoy-t98wEFd1XdQo-2" edge="1">
          <mxGeometry relative="1" as="geometry">
            <mxPoint x="-304" y="1.8699999999998909" as="sourcePoint" />
          </mxGeometry>
        </mxCell>
        <mxCell id="RWwmXoy-t98wEFd1XdQo-5" value="END-USER" style="shape=umlActor;verticalLabelPosition=bottom;verticalAlign=top;html=1;outlineConnect=0;" parent="1" vertex="1">
          <mxGeometry x="-280" y="84.15" width="52" height="98.75" as="geometry" />
        </mxCell>
        <mxCell id="RWwmXoy-t98wEFd1XdQo-6" value="Millton ATAK Plugin" style="verticalLabelPosition=bottom;sketch=0;html=1;fillColor=#A153A0;strokeColor=#ffffff;verticalAlign=top;align=center;points=[[0,0.5,0],[0.125,0.25,0],[0.25,0,0],[0.5,0,0],[0.75,0,0],[0.875,0.25,0],[1,0.5,0],[0.875,0.75,0],[0.75,1,0],[0.5,1,0],[0.125,0.75,0]];pointerEvents=1;shape=mxgraph.cisco_safe.compositeIcon;bgIcon=mxgraph.cisco_safe.design.blank_device;resIcon=mxgraph.cisco_safe.design.mobile_device;" parent="1" vertex="1">
          <mxGeometry x="-282.5" y="3.750000000000007" width="57" height="52.5" as="geometry" />
        </mxCell>
        <mxCell id="RWwmXoy-t98wEFd1XdQo-12" value="Detections&lt;br&gt;&amp;amp;&lt;br&gt;Enrich" style="text;html=1;align=center;verticalAlign=middle;resizable=0;points=[];autosize=1;fillColor=default;" parent="1" vertex="1">
          <mxGeometry x="-90" y="-90" width="80" height="60" as="geometry" />
        </mxCell>
        <mxCell id="RWwmXoy-t98wEFd1XdQo-13" value="&lt;div&gt;TAK Server&lt;/div&gt;" style="rounded=0;whiteSpace=wrap;html=1;" parent="1" vertex="1">
          <mxGeometry x="282.25" y="-390" width="90" height="40" as="geometry" />
        </mxCell>
        <mxCell id="RWwmXoy-t98wEFd1XdQo-16" style="rounded=0;orthogonalLoop=1;jettySize=auto;html=1;" parent="1" source="RWwmXoy-t98wEFd1XdQo-14" target="RWwmXoy-t98wEFd1XdQo-13" edge="1">
          <mxGeometry relative="1" as="geometry" />
        </mxCell>
        <mxCell id="RWwmXoy-t98wEFd1XdQo-14" value="TrackSync Gateway&lt;br&gt;(Core4ce. In-network relay)" style="rounded=1;whiteSpace=wrap;html=1;" parent="1" vertex="1">
          <mxGeometry x="102.5" y="-400" width="125" height="60" as="geometry" />
        </mxCell>
        <mxCell id="RWwmXoy-t98wEFd1XdQo-26" value="" style="rounded=0;orthogonalLoop=1;jettySize=auto;html=1;endArrow=none;startFill=0;" parent="1" source="RWwmXoy-t98wEFd1XdQo-2" edge="1">
          <mxGeometry relative="1" as="geometry">
            <mxPoint x="-300" y="-140" as="sourcePoint" />
            <mxPoint x="-300" y="-140" as="targetPoint" />
          </mxGeometry>
        </mxCell>
        <mxCell id="bAqnA3NA6WcOMhqckYBV-3" value="&lt;font&gt;Polls CoT messages from&lt;/font&gt;&lt;div&gt;&lt;font&gt;Kinesis Stream, forwards&lt;/font&gt;&lt;/div&gt;&lt;div&gt;&lt;font&gt;to TAK CoT consumers in-network&lt;/font&gt;&lt;/div&gt;&lt;div&gt;&lt;font&gt;via HTTPS/TLS (TAK Server).&amp;nbsp;&lt;/font&gt;&lt;/div&gt;" style="text;html=1;align=left;verticalAlign=middle;resizable=0;points=[];autosize=1;fontSize=11;fontColor=light-dark(#000000,#E6E6E6);" vertex="1" parent="1">
          <mxGeometry x="102.5" y="-288" width="190" height="70" as="geometry" />
        </mxCell>
        <mxCell id="bAqnA3NA6WcOMhqckYBV-6" style="edgeStyle=orthogonalEdgeStyle;rounded=0;orthogonalLoop=1;jettySize=auto;html=1;exitX=1;exitY=0.5;exitDx=0;exitDy=0;strokeColor=light-dark(#000000,#999999);endArrow=none;endFill=0;entryX=0;entryY=0.5;entryDx=0;entryDy=0;" edge="1" parent="1" target="RWwmXoy-t98wEFd1XdQo-2">
          <mxGeometry relative="1" as="geometry">
            <mxPoint x="-308" y="-140.16" as="targetPoint" />
            <mxPoint x="-370" y="-140.24" as="sourcePoint" />
          </mxGeometry>
        </mxCell>
        <mxCell id="bAqnA3NA6WcOMhqckYBV-7" value="AI Chatbot for discovering&lt;div&gt;datasets,&amp;nbsp;&lt;span style=&quot;background-color: transparent;&quot;&gt;finding data&amp;nbsp;&lt;/span&gt;&lt;/div&gt;&lt;div&gt;&lt;span style=&quot;background-color: transparent;&quot;&gt;solutions&amp;nbsp;&lt;/span&gt;&lt;span style=&quot;background-color: transparent;&quot;&gt;by processing&amp;nbsp;&lt;/span&gt;&lt;span style=&quot;background-color: transparent;&quot;&gt;and&lt;/span&gt;&lt;/div&gt;&lt;div&gt;&lt;span style=&quot;background-color: transparent;&quot;&gt;fusing&lt;/span&gt;&lt;span style=&quot;background-color: transparent;&quot;&gt;&amp;nbsp;datasets, and more.&lt;/span&gt;&lt;/div&gt;" style="text;html=1;align=left;verticalAlign=middle;resizable=0;points=[];autosize=1;fontSize=11;fontColor=light-dark(#000000,#E6E6E6);" vertex="1" parent="1">
          <mxGeometry x="-510" y="-175" width="160" height="70" as="geometry" />
        </mxCell>
        <mxCell id="bAqnA3NA6WcOMhqckYBV-8" value="" style="edgeStyle=none;orthogonalLoop=1;jettySize=auto;html=1;rounded=0;entryX=0.545;entryY=1;entryDx=0;entryDy=0;entryPerimeter=0;endArrow=none;endFill=0;" edge="1" parent="1" target="jyh1h8HAa2u7fzU4bVlv-134">
          <mxGeometry width="100" relative="1" as="geometry">
            <mxPoint x="-250" y="-160" as="sourcePoint" />
            <mxPoint x="-320" y="-250" as="targetPoint" />
            <Array as="points">
              <mxPoint x="-250" y="-200" />
              <mxPoint x="-150" y="-200" />
            </Array>
          </mxGeometry>
        </mxCell>
        <mxCell id="bAqnA3NA6WcOMhqckYBV-9" style="rounded=0;orthogonalLoop=1;jettySize=auto;html=1;strokeColor=light-dark(#000000,#999999);endArrow=none;endFill=0;exitX=0.449;exitY=0.981;exitDx=0;exitDy=0;exitPerimeter=0;entryX=0.285;entryY=0.044;entryDx=0;entryDy=0;entryPerimeter=0;" edge="1" parent="1" source="RWwmXoy-t98wEFd1XdQo-14" target="bAqnA3NA6WcOMhqckYBV-3">
          <mxGeometry relative="1" as="geometry">
            <mxPoint x="153" y="-285.49" as="targetPoint" />
            <mxPoint x="125" y="-332.5" as="sourcePoint" />
          </mxGeometry>
        </mxCell>
        <mxCell id="bAqnA3NA6WcOMhqckYBV-11" value="Ditto ATAK Plugin" style="rounded=1;whiteSpace=wrap;html=1;" vertex="1" parent="1">
          <mxGeometry x="272.25" y="-473.75" width="110" height="40" as="geometry" />
        </mxCell>
        <mxCell id="bAqnA3NA6WcOMhqckYBV-12" value="" style="edgeStyle=none;orthogonalLoop=1;jettySize=auto;html=1;rounded=0;exitX=1;exitY=0.5;exitDx=0;exitDy=0;entryX=0;entryY=0.5;entryDx=0;entryDy=0;" edge="1" parent="1" source="jyh1h8HAa2u7fzU4bVlv-140" target="bAqnA3NA6WcOMhqckYBV-11">
          <mxGeometry width="100" relative="1" as="geometry">
            <mxPoint x="605" y="-400" as="sourcePoint" />
            <mxPoint x="705" y="-400" as="targetPoint" />
            <Array as="points" />
          </mxGeometry>
        </mxCell>
        <mxCell id="bAqnA3NA6WcOMhqckYBV-13" value="" style="edgeStyle=none;orthogonalLoop=1;jettySize=auto;html=1;rounded=0;exitX=0.5;exitY=1;exitDx=0;exitDy=0;entryX=0.5;entryY=0;entryDx=0;entryDy=0;" edge="1" parent="1" source="bAqnA3NA6WcOMhqckYBV-11" target="RWwmXoy-t98wEFd1XdQo-13">
          <mxGeometry width="100" relative="1" as="geometry">
            <mxPoint x="555" y="-360" as="sourcePoint" />
            <mxPoint x="655" y="-360" as="targetPoint" />
            <Array as="points" />
          </mxGeometry>
        </mxCell>
        <mxCell id="bAqnA3NA6WcOMhqckYBV-14" style="rounded=0;orthogonalLoop=1;jettySize=auto;html=1;strokeColor=light-dark(#000000,#999999);endArrow=none;endFill=0;exitX=1;exitY=0.5;exitDx=0;exitDy=0;" edge="1" parent="1" source="bAqnA3NA6WcOMhqckYBV-11">
          <mxGeometry relative="1" as="geometry">
            <mxPoint x="455" y="-454" as="targetPoint" />
            <mxPoint x="500" y="-446" as="sourcePoint" />
          </mxGeometry>
        </mxCell>
        <mxCell id="bAqnA3NA6WcOMhqckYBV-15" value="Polls CoT messages from Ditto&lt;div&gt;Big Peer, forwards to TAK CoT&lt;/div&gt;&lt;div&gt;consumers via ATAK-configured&lt;/div&gt;&lt;div&gt;connections&lt;/div&gt;" style="text;html=1;align=left;verticalAlign=middle;resizable=0;points=[];autosize=1;fontSize=11;fontColor=light-dark(#000000,#E6E6E6);" vertex="1" parent="1">
          <mxGeometry x="455" y="-488.75" width="180" height="70" as="geometry" />
        </mxCell>
        <mxCell id="bAqnA3NA6WcOMhqckYBV-16" value="" style="edgeStyle=none;orthogonalLoop=1;jettySize=auto;html=1;rounded=0;exitX=1;exitY=1;exitDx=0;exitDy=0;entryX=0;entryY=0;entryDx=0;entryDy=0;" edge="1" parent="1" source="RWwmXoy-t98wEFd1XdQo-13" target="jyh1h8HAa2u7fzU4bVlv-143">
          <mxGeometry width="100" relative="1" as="geometry">
            <mxPoint x="640" y="-400" as="sourcePoint" />
            <mxPoint x="740" y="-400" as="targetPoint" />
            <Array as="points" />
          </mxGeometry>
        </mxCell>
        <mxCell id="bAqnA3NA6WcOMhqckYBV-18" value="&lt;div&gt;TAK Server&lt;/div&gt;" style="rounded=0;whiteSpace=wrap;html=1;" vertex="1" parent="1">
          <mxGeometry x="482.5" y="-330" width="90" height="40" as="geometry" />
        </mxCell>
        <mxCell id="bAqnA3NA6WcOMhqckYBV-19" value="" style="edgeStyle=none;orthogonalLoop=1;jettySize=auto;html=1;rounded=0;entryX=0.5;entryY=1;entryDx=0;entryDy=0;exitX=0.5;exitY=0;exitDx=0;exitDy=0;" edge="1" parent="1" source="jyh1h8HAa2u7fzU4bVlv-143" target="bAqnA3NA6WcOMhqckYBV-18">
          <mxGeometry width="100" relative="1" as="geometry">
            <mxPoint x="500" y="-160" as="sourcePoint" />
            <mxPoint x="600" y="-160" as="targetPoint" />
            <Array as="points" />
          </mxGeometry>
        </mxCell>
      </root>
    </mxGraphModel>
  </diagram>
</mxfile>
